<svg id="Layer_1" data-name="Layer 1" xmlns="http://www.w3.org/2000/svg" viewBox="0 0 1241.15 1090.54"><defs><style>.cls-1{fill:#f4f4f4;}.cls-2{fill:#bcbcbc;}</style></defs><path class="cls-1" d="M1620.57,610.88V984.25a64.43,64.43,0,0,1-53.74,63.54l-478.58,80.43v-56A68.25,68.25,0,0,0,1020,1004H978.53a68.25,68.25,0,0,0-68.24,68.25v58.86l-180.76-30.38-296.36-49.8a64.43,64.43,0,0,1-53.74-63.54V610.88A69.9,69.9,0,0,1,449.34,541H1550.68A69.89,69.89,0,0,1,1620.57,610.88Z" transform="translate(-379.43 -357.73)"/><path class="cls-1" d="M1592.73,1085.8V1367a81.28,81.28,0,0,1-81.28,81.28H488.55A81.28,81.28,0,0,1,407.27,1367v-278l322.25,54.16h0l180.76,30.38v3.58a68.25,68.25,0,0,0,68.24,68.25H1020a68.25,68.25,0,0,0,68.25-68.25v-6.48l163.51-27.48Z" transform="translate(-379.43 -357.73)"/><path class="cls-2" d="M1058.21,1073v41.86H941.8V1073A33.18,33.18,0,0,1,975,1039.82h50A33.2,33.2,0,0,1,1058.21,1073Z" transform="translate(-379.43 -357.73)"/><path class="cls-2" d="M941.8,1135.45h116.41v41.87a33.2,33.2,0,0,1-33.19,33.19H975a33.19,33.19,0,0,1-33.19-33.19Z" transform="translate(-379.43 -357.73)"/><path class="cls-2" d="M1228.49,492v31h-58.31V494.11a75,75,0,0,0-75-75.05H906.48a75,75,0,0,0-75.05,75.05V523H771.51V492A134.26,134.26,0,0,1,905.77,357.73h188.45A134.27,134.27,0,0,1,1228.49,492Z" transform="translate(-379.43 -357.73)"/></svg>