<svg id="Layer_1" data-name="Layer 1" xmlns="http://www.w3.org/2000/svg" viewBox="0 0 1159.31 1450"><defs><style>.cls-1{fill:#f4f4f4;}.cls-2{fill:#2d3e50;}</style></defs><rect class="cls-1" x="287.93" y="308.23" width="583.45" height="78.8" rx="5.25"/><rect class="cls-1" x="287.93" y="580.83" width="583.45" height="78.8" rx="5.25"/><rect class="cls-1" x="287.93" y="853.43" width="337.56" height="78.8" rx="5.25"/><path class="cls-1" d="M1070,1700.16l25.33-69.74H640.16c-69.09,0-125.25-56.16-125.25-125.19V494.81A125.36,125.36,0,0,1,640.16,369.56H1359.9c69,0,125.19,56.17,125.19,125.25V1118a86.52,86.52,0,0,1,26.2,11.28c25.32,16.35,40.44,43.79,40.44,73.42a87,87,0,0,1-9.39,39.19,8.58,8.58,0,0,0,4.66,11.76,87.71,87.71,0,0,1,32.65,21.52V494.81C1579.65,373.61,1481,275,1359.9,275H640.16C519,275,420.35,373.61,420.35,494.81V1505.23c0,121.2,98.61,219.76,219.81,219.76h427.73A47.77,47.77,0,0,1,1070,1700.16Z" transform="translate(-420.35 -275)"/><path d="M1181.26,1528.49a8.18,8.18,0,0,0-5.29,1l.9-.4A8.47,8.47,0,0,1,1181.26,1528.49Z" transform="translate(-420.35 -275)"/><path class="cls-2" d="M1312.38,1594.61l-37.23,116.77a8.46,8.46,0,0,1-13.84,3.61l-49.79-46.61a8.45,8.45,0,0,0-10.58-.79l-81.14,55.88a8.46,8.46,0,0,1-12.75-9.86l65.26-179.68a8.36,8.36,0,0,1,9.59-5.36,68.83,68.83,0,0,0,43-4.76,26.49,26.49,0,0,1,13.87-2.25c10.91,1.13,19.54,9.5,23.27,19.8a68,68,0,0,0,44.6,42.57A8.48,8.48,0,0,1,1312.38,1594.61Z" transform="translate(-420.35 -275)"/><path class="cls-2" d="M1540.76,1723.47l-81.13-55.88a8.45,8.45,0,0,0-10.58.79L1399.3,1715a8.47,8.47,0,0,1-13.85-3.6l-37.94-118.94a8.44,8.44,0,0,1,5-10.4,68.39,68.39,0,0,0,38.3-38.33c3.67-9.11,11.07-16.69,20.72-18.5a26.52,26.52,0,0,1,17,2.38,68.92,68.92,0,0,0,31,7.44,66.58,66.58,0,0,0,19.36-2.91,8.49,8.49,0,0,1,10.56,5.13l64.07,176.36A8.46,8.46,0,0,1,1540.76,1723.47Z" transform="translate(-420.35 -275)"/><path class="cls-1" d="M1533.14,1290.55a48,48,0,0,1-26-66.26,47.9,47.9,0,0,0,5.23-21.57c0-32.31-34.15-58.72-67.91-43.46a47.92,47.92,0,0,1-65.22-28.45c-7.31-21.73-26.42-32.73-45.53-32.73-18.5,0-37,10.31-44.8,31a47.92,47.92,0,0,1-66.26,26,47.91,47.91,0,0,0-21.58-5.23c-32.3,0-58.72,34.15-43.45,67.91a48,48,0,0,1-28.46,65.22c-42.76,14.35-43.88,74.45-1.69,90.33a47.93,47.93,0,0,1,26,66.26c-20.11,40.38,21.58,83.64,62.69,65a47.92,47.92,0,0,1,65.22,28.46c7.3,21.73,26.42,32.72,45.53,32.72,18.5,0,37-10.3,44.8-31a47.93,47.93,0,0,1,66.26-26,48,48,0,0,0,21.57,5.23c32.3,0,58.72-34.15,43.46-67.92a47.4,47.4,0,0,1-4.27-19.72,48,48,0,0,1,32.72-45.5c21.73-7.3,32.73-26.42,32.73-45.53C1564.17,1316.85,1553.86,1298.36,1533.14,1290.55Zm-202.86,186.28A144.87,144.87,0,1,1,1475.14,1332,144.88,144.88,0,0,1,1330.28,1476.83Z" transform="translate(-420.35 -275)"/><path class="cls-1" d="M1330.28,1208.48A123.49,123.49,0,1,0,1453.77,1332,123.48,123.48,0,0,0,1330.28,1208.48Zm67.22,111.76L1371.36,1347a6.12,6.12,0,0,0-1.65,5.51l7.21,36.72a6.15,6.15,0,0,1-8.77,6.71l-33.55-16.59a6.13,6.13,0,0,0-5.72.17l-32.68,18.19a6.17,6.17,0,0,1-9.1-6.3l5.4-37a6,6,0,0,0-1.9-5.39l-27.41-25.44a6.18,6.18,0,0,1,3.17-10.62l36.88-6.3a6.11,6.11,0,0,0,4.53-3.5l15.72-33.91a6.17,6.17,0,0,1,11.07-.29l17.37,33.13a6.15,6.15,0,0,0,4.74,3.25l37.12,4.49A6.19,6.19,0,0,1,1397.5,1320.24Z" transform="translate(-420.35 -275)"/></svg>