<svg id="Layer_1" data-name="Layer 1" xmlns="http://www.w3.org/2000/svg" viewBox="0 0 982 1022"><path d="M0,0V1022H982V0ZM747.05,821.62c-6.62,4.84-16.72.73-16.76-6.81l-.43-79.45c-24.83,44-56.81,80.92-93.76,107.93-7,5.13-17.7.77-17.74-7.2l-.55-103.2c-27.53,53.83-64.73,98.75-108.45,130.7a12.79,12.79,0,0,1-14.55.17,12.77,12.77,0,0,1-14.58-.09c-43.89-31.76-81.32-76.53-109.14-130.24v97.18c0,8-10.67,12.37-17.7,7.28C316.28,811,284.11,774.26,259,730.35v85.19c0,7.53-10.07,11.69-16.72,6.88-85.69-62-143.57-180.08-143.57-315.53s57.88-253.51,143.57-315.52c6.65-4.81,16.72-.66,16.72,6.88V277.7c25.07-43.91,57.24-80.7,94.35-107.55,7-5.09,17.7-.69,17.7,7.28V280.62c27.82-53.71,65.25-98.48,109.14-130.24a12.75,12.75,0,0,1,12.62-1.2h0a12.75,12.75,0,0,1,12.68,1.12c44.06,31.58,81.73,76.19,109.83,129.79l-.52-97.18c0-8,10.6-12.41,17.66-7.35,37.24,26.7,69.62,63.34,94.92,107.15L727,197.53c0-7.54,10-11.73,16.69-6.95,86,61.66,144.54,179.49,145.26,314.94S832.41,759.27,747.05,821.62Z" transform="translate(0 0)"/></svg>