<svg id="Layer_1" data-name="Layer 1" xmlns="http://www.w3.org/2000/svg" viewBox="0 0 1066 766"><defs><style>.cls-1{fill:#fff;}</style></defs><path d="M0,0V766H1066V0ZM825.25,445.75l.16,248.32C753.56,672,696.12,576.6,679.25,453.64l.16,241.53C605.66,672.48,547.09,572.58,532,444.9c-15.41,126.67-73.68,225.62-147,248.22V445.86c-15.4,126.68-73.67,225.66-147,248.26V460.55C220,580.15,163.47,672.4,93,694.12V63.88c70.47,21.72,127,114,145,233.57V63.88c73.33,22.6,131.6,121.58,147,248.26V62.88c73.67,22.71,132.14,122.5,147.22,250C547.59,186.4,605.76,87.55,679,64.93l.16,239.57C695.85,181.5,753.18,86,825,63.83l.16,248.34C840.45,185.43,898.67,86.39,972,63.73L972.41,694C899.05,671.42,840.72,572.45,825.25,445.75Z" transform="translate(0 0)"/><path class="cls-1" d="M236,384.72c0,17-.68,33.79-2,50.09V334.62C235.36,350.93,236,367.66,236,384.72Z" transform="translate(0 0)"/></svg>