<svg xmlns="http://www.w3.org/2000/svg" xmlns:xlink="http://www.w3.org/1999/xlink" viewBox="0 0 64.73 70.17"><defs><style>.cls-1{isolation:isolate;}.cls-2{opacity:0.8;mix-blend-mode:multiply;fill:url(#radial-gradient);}.cls-3{fill:url(#Degradado_sin_nombre_3);}.cls-4{fill:#fff;}</style><radialGradient id="radial-gradient" cx="71.76" cy="79.32" r="29.68" gradientTransform="translate(77.11 -27.51) rotate(45)" gradientUnits="userSpaceOnUse"><stop offset="0" stop-color="#1b1953"/><stop offset="0.37" stop-color="#7e7c9d" stop-opacity="0.57"/><stop offset="0.78" stop-color="#dbdbe4" stop-opacity="0.16"/><stop offset="1" stop-color="#fff" stop-opacity="0"/></radialGradient><linearGradient id="Degradado_sin_nombre_3" x1="192.49" y1="11.75" x2="230.78" y2="50.05" gradientTransform="translate(-147.85 35.02)" gradientUnits="userSpaceOnUse"><stop offset="0" stop-color="#ffe184"/><stop offset="0.21" stop-color="#fdba37"/><stop offset="0.38" stop-color="#f05477"/><stop offset="0.52" stop-color="#ed3894"/><stop offset="0.74" stop-color="#8d509f"/><stop offset="1" stop-color="#5e5da9"/></linearGradient></defs><g class="cls-1"><g id="Layer_1" data-name="Layer 1"><circle class="cls-2" cx="71.76" cy="79.32" r="29.68" transform="translate(-71.78 35.14) rotate(-45)"/><rect class="cls-3" x="39.95" y="42.08" width="47.66" height="47.66" rx="16" transform="translate(28.58 -64.64) rotate(45)"/><path class="cls-4" d="M70.88,57.3a1.57,1.57,0,1,0,1.57,1.57A1.57,1.57,0,0,0,70.88,57.3Z" transform="translate(-36.71 -38.84)"/><path class="cls-4" d="M63.9,59.31a6.61,6.61,0,1,0,6.6,6.61A6.62,6.62,0,0,0,63.9,59.31Zm0,10.83a4.23,4.23,0,1,1,4.22-4.22A4.23,4.23,0,0,1,63.9,70.14Z" transform="translate(-36.71 -38.84)"/><path class="cls-4" d="M69.14,79.32H58.44a8.06,8.06,0,0,1-8-8V60.56a8.06,8.06,0,0,1,8-8.05h10.7a8.06,8.06,0,0,1,8,8.05V71.27A8.06,8.06,0,0,1,69.14,79.32ZM58.44,55a5.53,5.53,0,0,0-5.53,5.52V71.27a5.53,5.53,0,0,0,5.53,5.52h10.7a5.53,5.53,0,0,0,5.53-5.52V60.56A5.53,5.53,0,0,0,69.14,55Z" transform="translate(-36.71 -38.84)"/></g></g></svg>