<svg xmlns="http://www.w3.org/2000/svg" xmlns:xlink="http://www.w3.org/1999/xlink" viewBox="0 0 64.89 67.63"><defs><style>.cls-1{isolation:isolate;}.cls-2{opacity:0.8;mix-blend-mode:multiply;fill:url(#radial-gradient);}.cls-3{fill:url(#Degradado_sin_nombre_10);}.cls-4{fill:#fff;}</style><radialGradient id="radial-gradient" cx="35.2" cy="37.95" r="29.68" gradientUnits="userSpaceOnUse"><stop offset="0" stop-color="#1b1953"/><stop offset="0.37" stop-color="#7e7c9d" stop-opacity="0.57"/><stop offset="0.78" stop-color="#dbdbe4" stop-opacity="0.16"/><stop offset="1" stop-color="#fff" stop-opacity="0"/></radialGradient><linearGradient id="Degradado_sin_nombre_10" x1="42.77" y1="-82.57" x2="81.06" y2="-44.28" gradientTransform="translate(2.93 126.95)" gradientUnits="userSpaceOnUse"><stop offset="0" stop-color="#097cb8"/><stop offset="1" stop-color="#3a59a8"/></linearGradient></defs><g class="cls-1"><g id="Layer_1" data-name="Layer 1"><circle class="cls-2" cx="35.2" cy="37.95" r="29.68"/><rect class="cls-3" x="41.02" y="39.7" width="47.66" height="47.66" rx="16" transform="translate(26.14 -63.7) rotate(45)"/><path class="cls-4" d="M55.3,57.79h4.1V71H55.3Zm2.05-6.54A2.38,2.38,0,1,1,55,53.62a2.38,2.38,0,0,1,2.38-2.37" transform="translate(-37.77 -36.45)"/><path class="cls-4" d="M62,57.79h3.93v1.8h0a4.31,4.31,0,0,1,3.88-2.12c4.14,0,4.9,2.72,4.9,6.27V71H70.63v-6.4c0-1.53,0-3.49-2.12-3.49s-2.46,1.66-2.46,3.38V71H62Z" transform="translate(-37.77 -36.45)"/></g></g></svg>