<svg xmlns="http://www.w3.org/2000/svg" viewBox="0 0 1512.33 1754.74"><defs><style>.cls-1{fill:#ddd;}.cls-2{fill:#ebeced;}.cls-3{fill:#2d2d2d;}.cls-4{fill:#3f3f3f;}.cls-5{fill:#fff;}</style></defs><g id="Objects"><path class="cls-1" d="M1816.29,1168.82c-67.84,293.89-307.12,594.58-716.29,709.05-409.17-114.47-648.45-415.16-716.29-709C317.53,882.18,338,580,413.68,295.51c242.61,36.24,503-28.62,686.32-172.38,183.3,143.76,443.71,208.62,686.32,172.38C1862,580,1882.47,882.18,1816.29,1168.82Z" transform="translate(-343.84 -123.13)"/><path class="cls-2" d="M1816.29,1168.82c-67.84,293.89-307.12,594.58-716.29,709.05V123.13c183.3,143.76,443.71,208.62,686.32,172.38C1862,580,1882.47,882.18,1816.29,1168.82Z" transform="translate(-343.84 -123.13)"/><path class="cls-3" d="M1733.57,1149.73c-15.58,67.49-40.83,133.94-75,197.54a867.25,867.25,0,0,1-134,185,920.29,920.29,0,0,1-193.34,155.15c-70.62,42.6-148.38,76.92-231.14,102-82.75-25.09-160.52-59.42-231.14-102a920.65,920.65,0,0,1-193.34-155.16,867.25,867.25,0,0,1-134-185c-34.22-63.59-59.47-130-75.05-197.54-30.17-130.66-42.31-270.2-36.11-414.75,4.85-113,21-229.79,47.92-347.12,23.19,1.61,46.64,2.42,69.78,2.42A1030.51,1030.51,0,0,0,869.66,339c83.66-27.44,161.14-64.8,230.34-111.07,69.2,46.27,146.68,83.63,230.34,111.07A1030.55,1030.55,0,0,0,1652,390.28c23.14,0,46.59-.81,69.78-2.42,27,117.33,43.07,234.1,47.93,347.12C1775.88,879.52,1763.74,1019.06,1733.57,1149.73Z" transform="translate(-343.84 -123.13)"/><path class="cls-4" d="M1733.57,1149.73c-15.58,67.49-40.83,133.94-75,197.54a867.25,867.25,0,0,1-134,185,920.29,920.29,0,0,1-193.34,155.15c-70.62,42.6-148.38,76.92-231.14,102V227.9c69.2,46.27,146.68,83.63,230.34,111.07A1030.55,1030.55,0,0,0,1652,390.28c23.14,0,46.59-.81,69.78-2.42,27,117.33,43.07,234.1,47.93,347.12C1775.88,879.52,1763.74,1019.06,1733.57,1149.73Z" transform="translate(-343.84 -123.13)"/><path class="cls-5" d="M1317.12,933.8a307.06,307.06,0,0,0-524.18,217.12C792.94,1320.5,930.42,1458,1100,1458A307.05,307.05,0,0,0,1317.12,933.8Zm-179,246.29,10.45,64.34a16.56,16.56,0,0,1-16.36,19.22h-64.46a16.57,16.57,0,0,1-16.33-19.35l10.89-63.93a76.07,76.07,0,1,1,75.81-.28Z" transform="translate(-343.84 -123.13)"/><path class="cls-5" d="M1263.54,666.67a32.3,32.3,0,1,1-64.59,0,99,99,0,0,0-197.9,0V799.5a339.85,339.85,0,0,0-64.59,27V666.67c0-90.18,73.36-163.53,163.54-163.53S1263.54,576.49,1263.54,666.67Z" transform="translate(-343.84 -123.13)"/></g></svg>