<svg xmlns="http://www.w3.org/2000/svg" xmlns:xlink="http://www.w3.org/1999/xlink" viewBox="0 0 64.89 68.9"><defs><style>.cls-1{isolation:isolate;}.cls-2{opacity:0.8;mix-blend-mode:multiply;fill:url(#radial-gradient);}.cls-3{fill:url(#Degradado_sin_nombre_6);}.cls-4{fill:#fff;}.cls-5{fill:#010101;}</style><radialGradient id="radial-gradient" cx="71.68" cy="75.43" r="29.68" gradientTransform="translate(140.93 -2.22) rotate(85.27)" gradientUnits="userSpaceOnUse"><stop offset="0" stop-color="#1b1953"/><stop offset="0.37" stop-color="#7e7c9d" stop-opacity="0.57"/><stop offset="0.78" stop-color="#dbdbe4" stop-opacity="0.16"/><stop offset="1" stop-color="#fff" stop-opacity="0"/></radialGradient><linearGradient id="Degradado_sin_nombre_6" x1="88.94" y1="-101.39" x2="127.23" y2="-63.1" gradientTransform="translate(-44.53 145.53)" gradientUnits="userSpaceOnUse"><stop offset="0" stop-color="#f8ec24"/><stop offset="1" stop-color="#fdba37"/></linearGradient></defs><g class="cls-1"><g id="Layer_1" data-name="Layer 1"><circle class="cls-2" cx="71.68" cy="75.43" r="29.68" transform="translate(-45.88 104.43) rotate(-85.27)"/><rect class="cls-3" x="39.71" y="39.46" width="47.66" height="47.66" rx="16" transform="translate(26.89 -62.61) rotate(45)"/><path class="cls-4" d="M63.55,76.1a6.21,6.21,0,0,1-3.14-.9c-.41-.24-.8-.5-1.19-.76l-.45-.3a3.33,3.33,0,0,0-1.69-.47,8.13,8.13,0,0,0-1.2.12l-.63.08h-.2a1.25,1.25,0,0,1-1.36-1.16c0-.47-.12-.68-1-.77a5.36,5.36,0,0,1-1.4-.42A2.4,2.4,0,0,1,50,70.31l-.06-.14v-.8l.16-.19a1.72,1.72,0,0,1,1-.63,6.19,6.19,0,0,0,4.18-3.25c.42-.71.46-.92.45-1a3.14,3.14,0,0,0-1-.46l-.32-.11a4.49,4.49,0,0,1-1.19-.68,1.6,1.6,0,0,1-.57-1.63A1.88,1.88,0,0,1,54,60.1a2.31,2.31,0,0,1,.46-.05,3.23,3.23,0,0,1,1.07.23l.29.09a23.28,23.28,0,0,1,0-3.28,6.48,6.48,0,0,1,3.34-5.48,8.25,8.25,0,0,1,8.81,0,6.51,6.51,0,0,1,3.32,5,20,20,0,0,1,0,3.79l.22-.07a3.77,3.77,0,0,1,1.11-.22,2.19,2.19,0,0,1,.87.18A1.63,1.63,0,0,1,74,63.06a4.36,4.36,0,0,1-1.26.69l-.49.19a4.65,4.65,0,0,0-.52.2.74.74,0,0,0-.27.18,1,1,0,0,0,.08.23,6.49,6.49,0,0,0,4.48,4,1.81,1.81,0,0,1,1.1.69l.13.18v.78l-.06.14a2.53,2.53,0,0,1-1.48,1.25A5.58,5.58,0,0,1,74,72c-.41,0-.5.12-.56.51-.09.62-.33,1.33-1.39,1.33l-.35,0a3.4,3.4,0,0,1-.53-.08,6.75,6.75,0,0,0-1.06-.1,3.45,3.45,0,0,0-2.26.78c-.21.16-.44.31-.66.45A6.63,6.63,0,0,1,63.55,76.1Z" transform="translate(-36.47 -36.21)"/><path class="cls-5" d="M63.55,51a7.94,7.94,0,0,1,4,1.17,5.84,5.84,0,0,1,3,4.47,20.23,20.23,0,0,1,0,3.89c0,.42,0,.59.29.59a1.85,1.85,0,0,0,.34,0,6.08,6.08,0,0,1,1.39-.33,1.49,1.49,0,0,1,.6.12,1.11,1.11,0,0,1,.71,1,1.08,1.08,0,0,1-.4.74,3.91,3.91,0,0,1-1.16.61c-.32.13-.64.23-1,.37-.63.29-.81.68-.51,1.31a7.22,7.22,0,0,0,4.93,4.35,1.17,1.17,0,0,1,.72.43V70a1.89,1.89,0,0,1-1.11.91,5,5,0,0,1-1.46.41,1.11,1.11,0,0,0-1.18,1.08c-.08.59-.25.75-.73.75h-.29l-.5-.08a6.27,6.27,0,0,0-1.14-.1,4.11,4.11,0,0,0-2.69.92,6.8,6.8,0,0,1-.71.48,5.77,5.77,0,0,1-3.17,1,5.6,5.6,0,0,1-2.8-.81c-.55-.33-1.07-.7-1.61-1.05A3.57,3.57,0,0,0,57.68,73a4,4,0,0,0-.6-.05,16.52,16.52,0,0,0-1.86.2h-.17c-.36,0-.67-.14-.69-.52,0-1.05-.7-1.31-1.58-1.4a4.66,4.66,0,0,1-1.2-.38,1.74,1.74,0,0,1-1-.87v-.41a1,1,0,0,1,.61-.41,6.94,6.94,0,0,0,4.63-3.56c.9-1.5.75-1.84-.91-2.43l-.29-.1a3.84,3.84,0,0,1-1-.56c-.75-.65-.3-1.59.57-1.8l.3,0A12.58,12.58,0,0,1,56,61.1h.15c.31,0,.43-.16.38-.54a20.83,20.83,0,0,1-.07-3.44,5.82,5.82,0,0,1,3-4.94A7.91,7.91,0,0,1,63.55,51m0-1.35A9.39,9.39,0,0,0,58.77,51a7.13,7.13,0,0,0-3.66,6c0,.88,0,1.66,0,2.38a3,3,0,0,0-.62-.07,2.49,2.49,0,0,0-.61.08,2.54,2.54,0,0,0-1.93,1.83,2.32,2.32,0,0,0,.78,2.3,4.82,4.82,0,0,0,1.39.79l.27.1.46.17-.18.31a5.57,5.57,0,0,1-3.74,2.93,2.51,2.51,0,0,0-1.37.86l-.33.38v1.2l.12.26a3,3,0,0,0,1.72,1.57,5.78,5.78,0,0,0,1.58.47,2.17,2.17,0,0,1,.38.07v.06a1.92,1.92,0,0,0,2,1.8,1.62,1.62,0,0,0,.31,0l.63-.08a9,9,0,0,1,1.09-.1,1.8,1.8,0,0,1,.4,0,2.28,2.28,0,0,1,.92.32l.47.32c.39.26.79.53,1.2.77a6.87,6.87,0,0,0,3.48,1,7.16,7.16,0,0,0,3.91-1.25l.12-.08a6.76,6.76,0,0,0,.7-.49,2.81,2.81,0,0,1,1.84-.62,5.09,5.09,0,0,1,.91.09l.63.09h.39a1.94,1.94,0,0,0,2.06-1.84,5.44,5.44,0,0,0,1.65-.44l.14,0a3.11,3.11,0,0,0,1.84-1.58l.14-.28V69.17l-.27-.36a2.51,2.51,0,0,0-1.49-.94,5.7,5.7,0,0,1-3.84-3.24l.15-.06.41-.15.1,0a5,5,0,0,0,1.45-.81,2.3,2.3,0,0,0-.66-4,2.81,2.81,0,0,0-1.14-.24,3.81,3.81,0,0,0-.6.06,17.3,17.3,0,0,0-.07-3A7.12,7.12,0,0,0,68.27,51a9.26,9.26,0,0,0-4.72-1.36Z" transform="translate(-36.47 -36.21)"/></g></g></svg>