<svg xmlns="http://www.w3.org/2000/svg" xmlns:xlink="http://www.w3.org/1999/xlink" viewBox="0 0 64.66 70.17"><defs><style>.cls-1{isolation:isolate;}.cls-2{opacity:0.8;mix-blend-mode:multiply;fill:url(#radial-gradient);}.cls-3{fill:url(#linear-gradient);}.cls-4{fill:#ee2857;}.cls-4,.cls-5,.cls-6{fill-rule:evenodd;}.cls-5{fill:#fff;}.cls-6{fill:#34c0c9;}</style><radialGradient id="radial-gradient" cx="70.76" cy="77.69" r="29.68" gradientTransform="translate(34.37 -20.89) rotate(22.07)" gradientUnits="userSpaceOnUse"><stop offset="0" stop-color="#1b1953"/><stop offset="0.37" stop-color="#7e7c9d" stop-opacity="0.57"/><stop offset="0.78" stop-color="#dbdbe4" stop-opacity="0.16"/><stop offset="1" stop-color="#fff" stop-opacity="0"/></radialGradient><linearGradient id="linear-gradient" x1="217.82" y1="76.76" x2="256.11" y2="115.05" gradientTransform="translate(-174.1 -31.62)" gradientUnits="userSpaceOnUse"><stop offset="0" stop-color="#24114b"/><stop offset="0.96" stop-color="#030204"/><stop offset="1" stop-color="#010101"/></linearGradient></defs><g class="cls-1"><g id="Layer_1" data-name="Layer 1"><circle class="cls-2" cx="70.76" cy="77.69" r="29.68" transform="translate(-59.79 -4.93) rotate(-22.07)"/><rect class="cls-3" x="39.04" y="40.45" width="47.66" height="47.66" rx="16" transform="translate(28.08 -62.83) rotate(45)"/><path class="cls-4" d="M67.86,60.56a10.5,10.5,0,0,0,6.14,2v-4.4A6.21,6.21,0,0,1,72.71,58v3.47a10.57,10.57,0,0,1-6.14-2v9a8.14,8.14,0,0,1-12.68,6.76,8.15,8.15,0,0,0,14-5.69v-9Zm1.59-4.45a6,6,0,0,1-1.59-3.59V52H66.64a6.09,6.09,0,0,0,2.81,4.16ZM56.73,71.79a3.73,3.73,0,0,1,3-6,3.66,3.66,0,0,1,1.13.18V61.48a8,8,0,0,0-1.29-.07v3.5a4,4,0,0,0-1.13-.17,3.72,3.72,0,0,0-1.68,7.05Z" transform="translate(-35.79 -37.21)"/><path class="cls-5" d="M66.57,59.49a10.57,10.57,0,0,0,6.14,2V58a6.13,6.13,0,0,1-3.26-1.87A6.09,6.09,0,0,1,66.64,52H63.42v17.6a3.73,3.73,0,0,1-6.69,2.24,3.72,3.72,0,0,1,1.68-7.05,3.86,3.86,0,0,1,1.13.17v-3.5a8.13,8.13,0,0,0-5.65,13.83,8.14,8.14,0,0,0,12.68-6.76Z" transform="translate(-35.79 -37.21)"/><path class="cls-6" d="M72.71,58v-.93a6.18,6.18,0,0,1-3.26-.94A6.13,6.13,0,0,0,72.71,58Zm-6.07-6a4,4,0,0,1-.07-.5v-.57H62.13v17.6a3.72,3.72,0,0,1-5.4,3.31,3.73,3.73,0,0,0,6.69-2.24V52Zm-7.1,9.46v-1a8.32,8.32,0,0,0-1.12-.08,8.14,8.14,0,0,0-4.53,14.91,8.13,8.13,0,0,1,5.65-13.83Z" transform="translate(-35.79 -37.21)"/></g></g></svg>