<svg xmlns="http://www.w3.org/2000/svg" xmlns:xlink="http://www.w3.org/1999/xlink" viewBox="0 0 64.81 70.17"><defs><style>.cls-1{isolation:isolate;}.cls-2{opacity:0.8;mix-blend-mode:multiply;fill:url(#radial-gradient);}.cls-3{fill:url(#linear-gradient);}.cls-4{fill:#fff;}</style><radialGradient id="radial-gradient" cx="71.82" cy="74.28" r="29.68" gradientTransform="translate(128.28 -12.26) rotate(77.15)" gradientUnits="userSpaceOnUse"><stop offset="0" stop-color="#1b1953"/><stop offset="0.37" stop-color="#7e7c9d" stop-opacity="0.57"/><stop offset="0.78" stop-color="#dbdbe4" stop-opacity="0.16"/><stop offset="1" stop-color="#fff" stop-opacity="0"/></radialGradient><linearGradient id="linear-gradient" x1="161.78" y1="-57.32" x2="200.07" y2="-19.03" gradientTransform="translate(-117.15 99.04)" gradientUnits="userSpaceOnUse"><stop offset="0" stop-color="#24114b"/><stop offset="0.96" stop-color="#030204"/><stop offset="1" stop-color="#010101"/></linearGradient></defs><g class="cls-1"><g id="Layer_1" data-name="Layer 1"><circle class="cls-2" cx="71.82" cy="74.28" r="29.68" transform="translate(-53.26 94) rotate(-77.15)"/><rect class="cls-3" x="39.94" y="37.04" width="47.66" height="47.66" rx="16" transform="translate(25.02 -61.06) rotate(45)"/><path class="cls-4" d="M65.79,59.2,73.7,50H71.82L65,58l-5.48-8H53.16l8.29,12.06-8.29,9.64H55l7.25-8.43,5.79,8.43h6.32L65.79,59.2Zm-2.56,3L62.39,61,55.7,51.42h2.88L64,59.13l.84,1.2,7,10H69l-5.72-8.18Z" transform="translate(-36.7 -33.79)"/></g></g></svg>